<svg version="1.1" id="Layer_1" xmlns="http://www.w3.org/2000/svg" xmlns:xlink="http://www.w3.org/1999/xlink" x="0px" y="0px"
	 viewBox="0 0 11 11" style="enable-background:new 0 0 11 11;" xml:space="preserve">
<path d="M3.789,7.009c-0.512-0.569-0.778-1.281-0.778-2c0-0.769,0.292-1.536,0.877-2.121l2-2c1.17-1.17,3.072-1.17,4.242,0
	c1.189,1.188,1.138,3.106-0.119,4.362l-0.76,0.759H9.009V4.838l0.295-0.295c0.874-0.876,0.927-2.142,0.119-2.948
	c-0.779-0.779-2.049-0.779-2.828,0l-2,2c-0.779,0.779-0.779,2.049,0,2.828l0.414,0.414v0.172H3.789z M5.13,10.13l2-2
	c1.132-1.132,1.158-2.945,0.099-4.121h-1.22v0.172l0.414,0.414c0.779,0.779,0.779,2.049,0,2.828l-2,2
	c-0.779,0.779-2.049,0.779-2.828,0s-0.779-2.049,0-2.828l0.414-0.414V5.009H1.767L0.888,5.888C0.303,6.473,0.011,7.24,0.011,8.009
	s0.292,1.536,0.877,2.121C2.058,11.3,3.96,11.3,5.13,10.13z M0,0 M11,11"/>
</svg>
